<svg xmlns="http://www.w3.org/2000/svg" width="1280" viewBox="0 0 960 639.75" height="853" version="1.0"><defs><clipPath id="a"><path d="M.188 339.145h214.136v204.363H.187Zm0 0"/></clipPath><clipPath id="b"><path d="M248.656 339.145h214.14v204.363h-214.14Zm0 0"/></clipPath><clipPath id="c"><path d="M496.766 339.145h214.136v204.363H496.766Zm0 0"/></clipPath><clipPath id="d"><path d="M745.234 339.145h214.137v204.363H745.234Zm0 0"/></clipPath></defs><g clip-path="url(#a)"><path fill="#f4c01e" d="m107.258 339.145 27.57 62.214a14.834 14.834 0 0 0 12.012 8.758l67.476 7.094-50.437 45.543a14.927 14.927 0 0 0-4.188 6.469 14.932 14.932 0 0 0-.398 7.699l14.129 66.601-58.742-34.07a14.796 14.796 0 0 0-14.844 0l-58.746 34.07 14.133-66.601a14.933 14.933 0 0 0-4.586-14.168L.199 417.21l67.477-7.094a14.85 14.85 0 0 0 7.176-2.762 14.901 14.901 0 0 0 4.832-5.996Zm0 0" fill-rule="evenodd"/></g><g clip-path="url(#b)"><path fill="#f4c01e" d="m355.727 339.145 27.574 62.214a14.901 14.901 0 0 0 4.832 5.996 14.85 14.85 0 0 0 7.176 2.762l67.476 7.094-50.437 45.543a14.933 14.933 0 0 0-4.586 14.168l14.133 66.601-58.747-34.07a14.796 14.796 0 0 0-14.844 0l-58.741 34.07 14.128-66.601a14.932 14.932 0 0 0-.398-7.7 14.927 14.927 0 0 0-4.188-6.468l-50.437-45.543 67.477-7.094a14.834 14.834 0 0 0 12.011-8.758Zm0 0" fill-rule="evenodd"/></g><g clip-path="url(#c)"><path fill="#f4c01e" d="m603.832 339.145 27.574 62.214a14.878 14.878 0 0 0 4.836 5.996 14.82 14.82 0 0 0 7.172 2.762l67.477 7.094-50.434 45.543a14.933 14.933 0 0 0-4.59 14.168L670 543.523l-58.746-34.07a14.796 14.796 0 0 0-14.844 0l-58.742 34.07 14.129-66.601a14.932 14.932 0 0 0-.399-7.7 14.892 14.892 0 0 0-4.187-6.468l-50.434-45.543 67.473-7.094a14.834 14.834 0 0 0 12.012-8.758Zm0 0" fill-rule="evenodd"/></g><g clip-path="url(#d)"><path fill="#f4c01e" d="m852.305 339.145 27.57 62.214a14.834 14.834 0 0 0 12.012 8.758l67.472 7.094-50.433 45.543a14.892 14.892 0 0 0-4.188 6.469 14.932 14.932 0 0 0-.398 7.699l14.129 66.601-58.742-34.07a14.796 14.796 0 0 0-14.844 0l-58.746 34.07 14.133-66.601a14.933 14.933 0 0 0-4.59-14.168l-50.434-45.543 67.477-7.094a14.82 14.82 0 0 0 7.172-2.762 14.878 14.878 0 0 0 4.835-5.996Zm0 0" fill-rule="evenodd"/></g></svg>